<svg xmlns="http://www.w3.org/2000/svg" viewBox="0 0 64 64" role="img" aria-label="Sahaay Digital">
  <defs>
    <linearGradient id="bg" x1="8%" y1="6%" x2="92%" y2="94%">
      <stop offset="0%" stop-color="#0b3fb3" />
      <stop offset="55%" stop-color="#0f5bb3" />
      <stop offset="100%" stop-color="#0c6d79" />
    </linearGradient>
    <radialGradient id="glow" cx="22%" cy="18%" r="78%">
      <stop offset="0%" stop-color="rgba(255,255,255,0.22)" />
      <stop offset="100%" stop-color="rgba(255,255,255,0)" />
    </radialGradient>
  </defs>

  <rect width="64" height="64" rx="18" fill="url(#bg)" />
  <rect width="64" height="64" rx="18" fill="url(#glow)" />

  <path
    d="M24 15h13l8 8v17c0 3.314-2.686 6-6 6H24c-3.314 0-6-2.686-6-6V21c0-3.314 2.686-6 6-6Z"
    fill="#f8fbff"
  />
  <path d="M37 15v7a1 1 0 0 0 1 1h7" fill="#dbe8ff" />
  <path
    d="M27 31.5l4.4 4.4L40.5 26"
    fill="none"
    stroke="#0b3fb3"
    stroke-linecap="round"
    stroke-linejoin="round"
    stroke-width="4"
  />
  <path
    d="M15 43.5c3.7 3.4 8.3 5.1 13.7 5.1 8 0 15-3.3 21.3-10"
    fill="none"
    stroke="#e8f2ff"
    stroke-linecap="round"
    stroke-width="4.8"
  />
</svg>
